<?xml version="1.0" encoding="UTF-8"?>
<svg width="24px" height="24px" viewBox="0 0 24 24" version="1.1" xmlns="http://www.w3.org/2000/svg" xmlns:xlink="http://www.w3.org/1999/xlink">
    <!-- Generator: Sketch 61.2 (89653) - https://sketch.com -->
    <title>icon/已加入</title>
    <desc>Created with Sketch.</desc>
    <g id="页面-1" stroke="none" stroke-width="1" fill="none" fill-rule="evenodd">
        <g id="片单详情页" transform="translate(-311.000000, -440.000000)">
            <g id="Controls-/-List-View-/-Compact-/-影片备份" transform="translate(24.000000, 396.000000)">
                <g id="Controls-/-List-View-/-Compact-/-影片">
                    <g id="icon/加入清单" transform="translate(287.000000, 44.000000)">
                        <g id="编组">
                            <path d="M11.801018,5.35204108 L11.9391532,5.5309222 L12.007,5.62301157 L12.0795666,5.52624123 C15.5776203,0.9804998 22.1535428,2.82795969 22.4868271,9.02502453 L22.4968956,9.27863476 L22.5,9.52069577 C22.5,12.6259366 20.6775265,15.4665011 17.6893445,17.8797549 C17.5071653,18.0268827 17.3199762,18.1720638 17.1294724,18.3145201 L16.4332704,17.5861376 C16.6475679,17.4282989 16.8577404,17.2667811 17.0606555,17.102907 C19.8370302,14.8607086 21.5,12.2687516 21.5,9.52069577 C21.5,3.62901809 15.3150672,2.03777361 12.427307,6.78556003 C12.2307101,7.10878635 11.7597883,7.10494144 11.5685063,6.77854823 C8.7869662,2.03227773 2.5,3.63928448 2.5,9.52069577 C2.5,12.2687516 4.16296979,14.8607086 6.93934453,17.102907 C8.86501095,18.6580739 11.4442813,20.0010402 12,20.0010402 C12.2880071,20.0010402 13.1195281,19.6403275 14.1218983,19.0763065 L14.8330659,19.8204095 C13.5869053,20.5340703 12.4840946,21 12,21 C11.1513387,21 8.40116276,19.5680472 6.31065547,17.8797549 C3.32247349,15.4665011 1.5,12.6259366 1.5,9.52069577 C1.5,3.02072507 8.25869738,0.906815766 11.801018,5.35204108 Z M15.386,18.307 L16.0904292,19.0448201 C16.0364216,19.0805522 15.9823916,19.1159752 15.9283742,19.151073 L15.2248648,18.4137752 L15.386,18.307 Z" id="形状结合" fill="#FFFFFF" fill-rule="nonzero"></path>
                            <path d="M14.1692945,17.1738141 C14.4007113,16.9145322 14.7825775,16.9073203 15.0222166,17.1577059 L17.1917413,19.4245225 L20.9628956,15.1992794 C21.1943124,14.9399975 21.5761786,14.9327856 21.8158177,15.1831713 C22.0554568,15.4335569 22.0621223,15.8467241 21.8307055,16.1060061 L17.6405341,20.8007206 C17.4091173,21.0600025 17.0272511,21.0672144 16.787612,20.8168287 L14.1841823,18.0966488 C13.9445432,17.8462632 13.9378777,17.433096 14.1692945,17.1738141 Z" id="路径" fill="#D8D8D8"></path>
                        </g>
                    </g>
                </g>
            </g>
        </g>
    </g>
</svg>