<?xml version="1.0" encoding="UTF-8"?>
<svg width="24px" height="24px" viewBox="0 0 24 24" version="1.1" xmlns="http://www.w3.org/2000/svg" xmlns:xlink="http://www.w3.org/1999/xlink">
    <!-- Generator: Sketch 61.2 (89653) - https://sketch.com -->
    <title>icon/加入清单</title>
    <desc>Created with Sketch.</desc>
    <g id="页面-1" stroke="none" stroke-width="1" fill="none" fill-rule="evenodd">
        <g id="片单详情页" transform="translate(-311.000000, -288.000000)" fill="#84868C">
            <g id="Controls-/-List-View-/-Compact-/-影片" transform="translate(24.000000, 244.000000)">
                <g id="icon/加入清单">
                    <g transform="translate(287.000000, 44.000000)">
                        <g id="编组">
                            <path d="M11.801018,5.35204108 L11.9391532,5.5309222 L12.007,5.62301157 L12.0795666,5.52624123 C15.5776203,0.9804998 22.1535428,2.82795969 22.4868271,9.02502453 L22.4968956,9.27863476 L22.5,9.52069577 C22.5,12.0528163 21.2881765,14.4089446 19.2206337,16.5008989 L18.5,16.5 L18.501129,15.8062457 C20.4021088,13.8833752 21.5,11.7535636 21.5,9.52069577 C21.5,3.62901809 15.3150672,2.03777361 12.427307,6.78556003 C12.2307101,7.10878635 11.7597883,7.10494144 11.5685063,6.77854823 C8.7869662,2.03227773 2.5,3.63928448 2.5,9.52069577 C2.5,12.2687516 4.16296979,14.8607086 6.93934453,17.102907 C8.86501095,18.6580739 11.4442813,20.0010402 12,20.0010402 C12.2115351,20.0010402 12.7162735,19.8064505 13.3665579,19.4796381 L13.4314914,19.4950677 L13.4314914,19.4950677 L13.5,19.5 L15.3733754,19.5007259 C13.9139061,20.3917583 12.5531057,21 12,21 C11.1513387,21 8.40116276,19.5680472 6.31065547,17.8797549 C3.32247349,15.4665011 1.5,12.6259366 1.5,9.52069577 C1.5,3.02072507 8.25869738,0.906815766 11.801018,5.35204108 Z M16.548,17.5 L17.5,17.5 L17.5,18.027 L17.2888646,18.1940912 C17.1531977,18.2976683 17.015568,18.3999472 16.8766072,18.5006378 L16.5,18.5 L16.5005092,17.536391 L16.548,17.5 Z" id="形状结合" fill-rule="nonzero"></path>
                            <path d="M17,15 C17.2761424,15 17.5,15.2238576 17.5,15.5 L17.5,17.5 L19.5,17.5 C19.7761424,17.5 20,17.7238576 20,18 C20,18.2761424 19.7761424,18.5 19.5,18.5 L17.5,18.5 L17.5,20.5 C17.5,20.7761424 17.2761424,21 17,21 C16.7238576,21 16.5,20.7761424 16.5,20.5 L16.5,18.5 L14.5,18.5 C14.2238576,18.5 14,18.2761424 14,18 C14,17.7238576 14.2238576,17.5 14.5,17.5 L16.5,17.5 L16.5,15.5 C16.5,15.2238576 16.7238576,15 17,15 Z" id="形状结合"></path>
                        </g>
                    </g>
                </g>
            </g>
        </g>
    </g>
</svg>